<svg width="388" height="429" viewBox="0 0 388 429" fill="none" xmlns="http://www.w3.org/2000/svg">
<path d="M72.4248 37.6746C101.663 29.8403 131.716 47.1914 139.55 76.4294L114.971 83.0154C99.3076 87.2124 83.2078 77.9171 79.0108 62.2539L72.4248 37.6746Z" fill="#FFAB9C"/>
<path d="M100.312 9.78711C129.55 17.6214 146.901 47.6745 139.067 76.9125L114.488 70.3265C98.8243 66.1295 89.529 50.0297 93.726 34.3665L100.312 9.78711Z" fill="#FF8C77"/>
<path d="M49.7344 157.238C64.2353 90.9391 143.928 63.7036 195.973 107.26L228.034 134.093C236.437 141.125 240.224 152.251 237.858 162.95L218.494 250.514C216.909 257.683 208.288 260.618 202.657 255.906L173.972 231.899C170.485 228.981 165.147 230.775 164.13 235.206L139.894 340.742C125.546 403.216 50.2761 428.503 1.11914 387.363C0.226891 386.616 -0.176334 385.435 0.0722656 384.298L49.7344 157.238ZM132.622 142.688C127.217 142.688 122.836 147.07 122.836 152.475V160.305C122.836 165.71 127.217 170.092 132.622 170.092H138.495C143.9 170.092 148.282 165.71 148.282 160.305V152.475C148.282 147.07 143.9 142.688 138.495 142.688H132.622Z" fill="#282C30"/>
<path d="M247.96 173.514C262.308 111.039 337.576 85.7525 386.733 126.892C387.626 127.639 388.03 128.82 387.781 129.957L338.119 357.017C323.618 423.316 243.925 450.551 191.881 406.994L159.819 380.161C151.417 373.129 147.628 362.004 149.994 351.306L169.358 263.741C170.944 256.572 179.566 253.637 185.196 258.349L213.881 282.356C217.367 285.274 222.706 283.48 223.724 279.05L247.96 173.514ZM239.301 332.76C233.896 332.76 229.514 337.142 229.514 342.547V350.377C229.514 355.782 233.896 360.164 239.301 360.164H245.173C250.578 360.164 254.96 355.782 254.96 350.377V342.547C254.96 337.142 250.578 332.76 245.173 332.76H239.301Z" fill="#FF684D"/>
<path d="M138.583 0C159.987 21.4037 159.987 56.106 138.583 77.5097L120.59 59.5164C109.123 48.0501 109.123 29.4596 120.59 17.9933L138.583 0Z" fill="#FF684D"/>
</svg>
